<svg width="337" height="120" viewBox="0 0 337 120" fill="none" xmlns="http://www.w3.org/2000/svg">
<g clip-path="url(#clip0_111_43)">
<path d="M35 27.3333C35 23.7971 36.4048 20.4057 38.9052 17.9052C41.4057 15.4048 44.7971 14 48.3333 14H101.667C103.418 14 105.151 14.3449 106.769 15.0149C108.387 15.685 109.857 16.6671 111.095 17.9052C112.333 19.1434 113.315 20.6132 113.985 22.2309C114.655 23.8486 115 25.5824 115 27.3333V80.6667C115 84.2029 113.595 87.5943 111.095 90.0948C108.594 92.5952 105.203 94 101.667 94H48.3333C46.5824 94 44.8486 93.6551 43.2309 92.9851C41.6132 92.315 40.1434 91.3329 38.9052 90.0948C36.4048 87.5943 35 84.2029 35 80.6667V27.3333ZM48.3333 19.3333C46.2116 19.3333 44.1768 20.1762 42.6765 21.6765C41.1762 23.1768 40.3333 25.2116 40.3333 27.3333V61.1867C41.38 60.7209 42.5382 60.5646 43.6709 60.7362C44.8036 60.9077 45.8635 61.3999 46.7253 62.1547L53.1893 67.8107L55.6853 65.3147L52.8853 63.8293C51.6638 63.1805 50.7421 62.0825 50.3147 60.7671C49.8873 59.4516 49.9877 58.0215 50.5947 56.7787L51.9973 53.9067C52.175 53.5425 52.2674 53.1426 52.2674 52.7373C52.2674 52.3321 52.175 51.9322 51.9973 51.568L50.5947 48.696C49.9879 47.4528 49.8879 46.0225 50.3158 44.707C50.7437 43.3915 51.666 42.2937 52.888 41.6453L55.7013 40.1493C56.0596 39.9592 56.3697 39.6898 56.6082 39.3617C56.8466 39.0336 57.0071 38.6555 57.0773 38.256L57.6293 35.1093C57.8689 33.7466 58.6286 32.5303 59.7482 31.7173C60.8677 30.9043 62.2594 30.5582 63.6293 30.752L66.776 31.1973C67.1783 31.2543 67.5883 31.2185 67.9747 31.0928C68.361 30.9671 68.7136 30.7547 69.0053 30.472L71.2907 28.2587C72.2854 27.2958 73.6156 26.7575 75 26.7575C76.3844 26.7575 77.7146 27.2958 78.7093 28.2587L80.9947 30.472C81.2865 30.7547 81.639 30.9671 82.0253 31.0928C82.4117 31.2185 82.8217 31.2543 83.224 31.1973L86.3707 30.752C87.741 30.5582 89.133 30.9047 90.2526 31.7183C91.3722 32.5319 92.1317 33.7488 92.3707 35.112L92.9227 38.2533C92.9929 38.6528 93.1534 39.0309 93.3918 39.359C93.6303 39.6871 93.9404 39.9565 94.2987 40.1467L97.1147 41.6453C98.3355 42.2941 99.2568 43.3916 99.6841 44.7065C100.111 46.0213 100.012 47.4508 99.4053 48.6933L98.0027 51.568C97.825 51.9322 97.7326 52.3321 97.7326 52.7373C97.7326 53.1426 97.825 53.5425 98.0027 53.9067L99.4053 56.7787C100.012 58.0219 100.112 59.4522 99.6842 60.7677C99.2563 62.0832 98.334 63.181 97.112 63.8293L94.3147 65.3147L97.7547 68.7547L104.155 63.1573C104.904 62.5024 105.843 62.1041 106.835 62.0206C107.826 61.9372 108.818 62.1729 109.667 62.6933V27.3333C109.667 25.2116 108.824 23.1768 107.324 21.6765C105.823 20.1762 103.788 19.3333 101.667 19.3333H48.3333ZM95 52.6667C94.9988 49.5793 94.2828 46.5342 92.9082 43.7698C91.5337 41.0054 89.5377 38.5967 87.0768 36.7324C84.6159 34.8682 81.7568 33.599 78.7234 33.0242C75.6901 32.4494 72.5648 32.5847 69.5925 33.4194C66.6202 34.2542 63.8814 35.7657 61.5908 37.8356C59.3002 39.9056 57.5199 42.4777 56.3893 45.3505C55.2587 48.2234 54.8086 51.319 55.0741 54.3949C55.3397 57.4708 56.3137 60.4434 57.92 63.08L70.4747 50.5253C71.0686 49.9304 71.774 49.4585 72.5505 49.1365C73.327 48.8145 74.1594 48.6488 75 48.6488C75.8406 48.6488 76.673 48.8145 77.4495 49.1365C78.226 49.4585 78.9314 49.9304 79.5253 50.5253L92.08 63.08C93.9958 59.9449 95.0064 56.3408 95 52.6667ZM40.3333 80.6667L51.2987 69.7013L44.968 64.16C44.3928 63.6569 43.6622 63.3668 42.8985 63.3381C42.1349 63.3095 41.3846 63.5441 40.7733 64.0027L40.3333 64.3333V80.6667ZM92.5627 88.6667L82.2853 78.3893C82.0361 78.1407 81.6987 78.0008 81.3467 78H79C77.2319 78 75.5362 77.2976 74.286 76.0474C73.0357 74.7971 72.3333 73.1014 72.3333 71.3333V52.4373L40.9707 83.8C41.4795 84.989 42.2679 86.0376 43.2688 86.8566C44.2698 87.6756 45.4538 88.2407 46.72 88.504C47.251 88.6121 47.7915 88.6666 48.3333 88.6667H92.5627Z" fill="black"/>
</g>
<path d="M129.783 43V25.7529H123.623V22.2412H140.12V25.7529H133.974V43H129.783ZM147.065 22.2412V29.8735C148.349 28.3726 149.883 27.6221 151.667 27.6221C152.583 27.6221 153.409 27.792 154.145 28.1318C154.881 28.4717 155.434 28.9059 155.802 29.4346C156.179 29.9632 156.434 30.5485 156.566 31.1904C156.708 31.8324 156.779 32.8283 156.779 34.1782V43H152.8V35.0562C152.8 33.4797 152.724 32.479 152.573 32.0542C152.422 31.6294 152.153 31.2943 151.766 31.0488C151.388 30.7939 150.912 30.6665 150.336 30.6665C149.675 30.6665 149.085 30.827 148.566 31.1479C148.047 31.4689 147.664 31.9551 147.419 32.6064C147.183 33.2484 147.065 34.2018 147.065 35.4668V43H143.086V22.2412H147.065ZM161.119 25.9229V22.2412H165.098V25.9229H161.119ZM161.119 43V27.9619H165.098V43H161.119ZM178.188 38.2139L182.153 38.8794C181.643 40.3332 180.836 41.4424 179.732 42.207C178.637 42.9622 177.263 43.3398 175.611 43.3398C172.996 43.3398 171.061 42.4855 169.806 40.7769C168.814 39.408 168.319 37.6805 168.319 35.5942C168.319 33.1021 168.97 31.1527 170.273 29.7461C171.576 28.3301 173.223 27.6221 175.215 27.6221C177.452 27.6221 179.217 28.3631 180.511 29.8452C181.804 31.3179 182.422 33.5788 182.366 36.6279H172.397C172.425 37.8079 172.746 38.7284 173.36 39.3892C173.973 40.0405 174.738 40.3662 175.654 40.3662C176.277 40.3662 176.801 40.1963 177.225 39.8564C177.65 39.5166 177.971 38.9691 178.188 38.2139ZM178.415 34.1924C178.387 33.0407 178.089 32.1675 177.523 31.5728C176.956 30.9686 176.267 30.6665 175.455 30.6665C174.587 30.6665 173.87 30.9827 173.303 31.6152C172.737 32.2477 172.458 33.1068 172.468 34.1924H178.415ZM170.556 26.0645L173.53 21.8872H177.211L180.142 26.0645H176.942L175.3 23.9546L173.77 26.0645H170.556ZM199.591 43H195.612V35.3252C195.612 33.7015 195.527 32.6536 195.357 32.1816C195.187 31.7002 194.909 31.3273 194.522 31.063C194.144 30.7987 193.686 30.6665 193.148 30.6665C192.459 30.6665 191.841 30.8553 191.293 31.2329C190.746 31.6105 190.368 32.1108 190.16 32.7339C189.962 33.3569 189.863 34.5086 189.863 36.189V43H185.884V27.9619H189.58V30.1709C190.892 28.4717 192.544 27.6221 194.536 27.6221C195.414 27.6221 196.216 27.7826 196.943 28.1035C197.67 28.415 198.218 28.8162 198.586 29.3071C198.963 29.798 199.223 30.355 199.365 30.978C199.516 31.6011 199.591 32.4932 199.591 33.6543V43ZM212.321 22.2412H219.967C221.723 22.2412 223.054 22.3781 223.96 22.6519C225.187 23.02 226.235 23.6714 227.104 24.606C227.972 25.5311 228.624 26.6545 229.058 27.9761C229.502 29.2977 229.723 30.9308 229.723 32.8755C229.723 34.5841 229.478 36.1276 228.987 37.5059C228.506 38.8747 227.793 40.0169 226.849 40.9326C226.122 41.6217 225.145 42.1646 223.918 42.561C222.993 42.8537 221.751 43 220.194 43H212.321V33.9375H210.168V31.3037H212.321V22.2412ZM216.498 25.7529V31.3037H220.944V33.9375H216.498V39.5024H219.641C221.029 39.5024 222.03 39.3892 222.643 39.1626C223.455 38.8794 224.073 38.3602 224.498 37.605C225.093 36.5382 225.39 34.9098 225.39 32.7197C225.39 31.1621 225.263 29.9632 225.008 29.123C224.763 28.2734 224.394 27.589 223.904 27.0698C223.422 26.5506 222.79 26.1872 222.006 25.9795C221.402 25.8285 220.198 25.7529 218.395 25.7529H216.498ZM233.539 43V27.9619H237.518V43H233.539ZM234.743 24.5635C235.281 24.5068 235.626 24.4549 235.777 24.4077C236.277 24.285 236.532 24.0679 236.541 23.7563C236.551 23.5392 236.419 23.3551 236.145 23.2041C235.748 22.987 235.12 22.8784 234.261 22.8784C233.969 22.8784 233.525 22.8973 232.93 22.9351L232.775 21.4907C233.143 21.4152 233.822 21.3822 234.814 21.3916C235.975 21.401 236.924 21.5898 237.66 21.958C238.472 22.3545 238.887 22.9067 238.906 23.6147C238.944 24.5965 238.085 25.196 236.329 25.4131V26.1211H234.743V24.5635ZM255.579 43H251.6V35.3252C251.6 33.7015 251.515 32.6536 251.345 32.1816C251.175 31.7002 250.897 31.3273 250.51 31.063C250.132 30.7987 249.674 30.6665 249.136 30.6665C248.447 30.6665 247.829 30.8553 247.281 31.2329C246.734 31.6105 246.356 32.1108 246.149 32.7339C245.95 33.3569 245.851 34.5086 245.851 36.189V43H241.872V27.9619H245.568V30.1709C246.88 28.4717 248.532 27.6221 250.524 27.6221C251.402 27.6221 252.204 27.7826 252.931 28.1035C253.658 28.415 254.206 28.8162 254.574 29.3071C254.952 29.798 255.211 30.355 255.353 30.978C255.504 31.6011 255.579 32.4932 255.579 33.6543V43ZM263.884 22.2412V29.8735C265.168 28.3726 266.702 27.6221 268.486 27.6221C269.402 27.6221 270.228 27.792 270.964 28.1318C271.7 28.4717 272.253 28.9059 272.621 29.4346C272.998 29.9632 273.253 30.5485 273.385 31.1904C273.527 31.8324 273.598 32.8283 273.598 34.1782V43H269.619V35.0562C269.619 33.4797 269.543 32.479 269.392 32.0542C269.241 31.6294 268.972 31.2943 268.585 31.0488C268.207 30.7939 267.731 30.6665 267.155 30.6665C266.494 30.6665 265.904 30.827 265.385 31.1479C264.866 31.4689 264.483 31.9551 264.238 32.6064C264.002 33.2484 263.884 34.2018 263.884 35.4668V43H259.905V22.2412H263.884Z" fill="black"/>
<path d="M127.818 60.083H138.121C140.444 60.083 142.215 60.2607 143.434 60.6162C145.071 61.0986 146.474 61.9556 147.642 63.187C148.81 64.4185 149.699 65.9292 150.308 67.7192C150.917 69.4966 151.222 71.6929 151.222 74.3081C151.222 76.606 150.937 78.5864 150.365 80.2495C149.667 82.2808 148.67 83.9248 147.375 85.1816C146.398 86.1338 145.078 86.8765 143.415 87.4097C142.17 87.8032 140.507 88 138.425 88H127.818V60.083ZM133.455 64.8057V83.2964H137.664C139.238 83.2964 140.374 83.2075 141.072 83.0298C141.986 82.8013 142.742 82.4141 143.338 81.8682C143.948 81.3223 144.443 80.4272 144.824 79.1831C145.205 77.9263 145.395 76.2188 145.395 74.0605C145.395 71.9023 145.205 70.2456 144.824 69.0903C144.443 67.9351 143.91 67.0337 143.224 66.3862C142.539 65.7388 141.669 65.3008 140.615 65.0723C139.828 64.8945 138.286 64.8057 135.988 64.8057H133.455ZM156.411 88V60.083H177.111V64.8057H162.048V70.9946H176.063V75.6982H162.048V83.2964H177.644V88H156.411ZM181.385 78.9165L186.87 78.3833C187.2 80.2241 187.866 81.5762 188.869 82.4395C189.885 83.3027 191.25 83.7344 192.964 83.7344C194.779 83.7344 196.144 83.3535 197.058 82.5918C197.985 81.8174 198.448 80.916 198.448 79.8877C198.448 79.2275 198.251 78.6689 197.858 78.2119C197.477 77.7422 196.804 77.3359 195.839 76.9932C195.179 76.7646 193.675 76.3584 191.326 75.7744C188.304 75.0254 186.184 74.105 184.966 73.0132C183.252 71.4771 182.395 69.6045 182.395 67.3955C182.395 65.9736 182.795 64.647 183.594 63.4155C184.407 62.1714 185.569 61.2256 187.079 60.5781C188.603 59.9307 190.437 59.6069 192.583 59.6069C196.087 59.6069 198.721 60.375 200.486 61.9111C202.263 63.4473 203.196 65.4976 203.285 68.062L197.648 68.3096C197.407 66.875 196.886 65.8467 196.087 65.2246C195.3 64.5898 194.113 64.2725 192.526 64.2725C190.888 64.2725 189.606 64.6089 188.679 65.2817C188.082 65.7134 187.784 66.291 187.784 67.0146C187.784 67.6748 188.063 68.2397 188.622 68.7095C189.333 69.3062 191.059 69.9282 193.801 70.5757C196.544 71.2231 198.569 71.896 199.876 72.5942C201.197 73.2798 202.225 74.2256 202.961 75.4316C203.71 76.625 204.085 78.104 204.085 79.8687C204.085 81.4683 203.64 82.9663 202.752 84.3628C201.863 85.7593 200.606 86.8003 198.981 87.4858C197.356 88.1587 195.331 88.4951 192.906 88.4951C189.377 88.4951 186.667 87.6826 184.775 86.0576C182.884 84.4199 181.754 82.0396 181.385 78.9165ZM209.045 88V60.083H214.682V88H209.045ZM233.448 77.7358V73.0322H245.598V84.1533C244.417 85.2959 242.703 86.3052 240.456 87.1812C238.222 88.0444 235.956 88.4761 233.658 88.4761C230.738 88.4761 228.192 87.8667 226.021 86.6479C223.851 85.4165 222.219 83.6646 221.127 81.3921C220.036 79.1069 219.49 76.625 219.49 73.9463C219.49 71.0391 220.099 68.4556 221.318 66.1958C222.537 63.936 224.32 62.2031 226.669 60.9971C228.459 60.0703 230.687 59.6069 233.353 59.6069C236.819 59.6069 239.523 60.3369 241.465 61.7969C243.42 63.2441 244.677 65.25 245.236 67.8145L239.637 68.8618C239.244 67.4907 238.501 66.4116 237.409 65.6245C236.33 64.8247 234.978 64.4248 233.353 64.4248C230.89 64.4248 228.929 65.2056 227.469 66.7671C226.021 68.3286 225.298 70.6455 225.298 73.7178C225.298 77.0312 226.034 79.5195 227.507 81.1826C228.979 82.833 230.909 83.6582 233.296 83.6582C234.477 83.6582 235.657 83.4297 236.838 82.9727C238.031 82.5029 239.053 81.938 239.904 81.2778V77.7358H233.448ZM251.262 88V60.083H256.747L268.173 78.7261V60.083H273.409V88H267.754L256.499 69.7949V88H251.262Z" fill="black"/>
<defs>
<clipPath id="clip0_111_43">
<rect width="120" height="120" fill="white"/>
</clipPath>
</defs>
</svg>
