<svg width="114" height="114" viewBox="0 0 114 114" fill="none" xmlns="http://www.w3.org/2000/svg">
<path d="M0.75 19.5C0.75 14.5272 2.72544 9.75806 6.24175 6.24175C9.75806 2.72544 14.5272 0.75 19.5 0.75H94.5C96.9623 0.75 99.4005 1.23498 101.675 2.17726C103.95 3.11953 106.017 4.50065 107.758 6.24175C109.499 7.98285 110.88 10.0498 111.823 12.3247C112.765 14.5995 113.25 17.0377 113.25 19.5V94.5C113.25 99.4728 111.275 104.242 107.758 107.758C104.242 111.275 99.4728 113.25 94.5 113.25H19.5C17.0377 113.25 14.5995 112.765 12.3247 111.823C10.0498 110.88 7.98285 109.499 6.24175 107.758C2.72544 104.242 0.75 99.4728 0.75 94.5V19.5ZM19.5 8.25C16.5163 8.25 13.6548 9.43526 11.545 11.545C9.43526 13.6548 8.25 16.5163 8.25 19.5V67.1062C9.7219 66.4513 11.3505 66.2315 12.9434 66.4727C14.5363 66.7139 16.0268 67.4061 17.2387 68.4675L26.3288 76.4213L29.8387 72.9113L25.9012 70.8225C24.1834 69.9101 22.8873 68.3661 22.2863 66.5162C21.6853 64.6663 21.8264 62.6553 22.68 60.9075L24.6525 56.8688C24.9024 56.3566 25.0323 55.7942 25.0323 55.2244C25.0323 54.6545 24.9024 54.0922 24.6525 53.58L22.68 49.5412C21.8267 47.793 21.6861 45.7816 22.2878 43.9317C22.8895 42.0817 24.1865 40.538 25.905 39.6262L29.8612 37.5225C30.365 37.2551 30.8012 36.8763 31.1365 36.4149C31.4718 35.9535 31.6974 35.4217 31.7963 34.86L32.5725 30.435C32.9094 28.5187 33.9778 26.8083 35.5521 25.665C37.1265 24.5217 39.0835 24.0349 41.01 24.3075L45.435 24.9337C46.0007 25.0138 46.5773 24.9635 47.1206 24.7867C47.6639 24.61 48.1597 24.3114 48.57 23.9138L51.7838 20.8013C53.1826 19.4472 55.0532 18.6902 57 18.6902C58.9468 18.6902 60.8174 19.4472 62.2163 20.8013L65.43 23.9138C65.8403 24.3114 66.3361 24.61 66.8794 24.7867C67.4227 24.9635 67.9993 25.0138 68.565 24.9337L72.99 24.3075C74.9171 24.035 76.8746 24.5223 78.449 25.6664C80.0234 26.8104 81.0915 28.5218 81.4275 30.4387L82.2038 34.8563C82.3026 35.418 82.5282 35.9498 82.8635 36.4111C83.1988 36.8725 83.635 37.2513 84.1387 37.5188L88.0987 39.6262C89.8156 40.5386 91.1111 42.082 91.712 43.931C92.313 45.78 92.1724 47.7901 91.32 49.5375L89.3475 53.58C89.0976 54.0922 88.9677 54.6545 88.9677 55.2244C88.9677 55.7942 89.0976 56.3566 89.3475 56.8688L91.32 60.9075C92.1733 62.6557 92.3139 64.6671 91.7122 66.517C91.1105 68.367 89.8135 69.9108 88.095 70.8225L84.1613 72.9113L88.9988 77.7488L97.9988 69.8775C99.0524 68.9565 100.373 68.3964 101.767 68.279C103.162 68.1616 104.557 68.4931 105.75 69.225V19.5C105.75 16.5163 104.565 13.6548 102.455 11.545C100.345 9.43526 97.4837 8.25 94.5 8.25H19.5ZM85.125 55.125C85.1233 50.7834 84.1165 46.5012 82.1835 42.6138C80.2505 38.7263 77.4437 35.3391 73.983 32.7175C70.5223 30.0959 66.5017 28.3111 62.2361 27.5028C57.9704 26.6945 53.5756 26.8847 49.3957 28.0586C45.2159 29.2324 41.3645 31.358 38.1433 34.2688C34.9221 37.1797 32.4185 40.7967 30.8287 44.8367C29.2388 48.8767 28.6058 53.2299 28.9792 57.5553C29.3527 61.8808 30.7225 66.0611 32.9813 69.7688L50.6363 52.1137C51.4715 51.2772 52.4634 50.6135 53.5554 50.1607C54.6474 49.7079 55.8179 49.4748 57 49.4748C58.1821 49.4748 59.3526 49.7079 60.4446 50.1607C61.5366 50.6135 62.5285 51.2772 63.3638 52.1137L81.0188 69.7688C83.7128 65.36 85.134 60.2917 85.125 55.125ZM8.25 94.5L23.67 79.08L14.7675 71.2875C13.9586 70.5801 12.9312 70.172 11.8573 70.1318C10.7835 70.0915 9.72837 70.4214 8.86875 71.0662L8.25 71.5312V94.5ZM81.6975 105.75L67.245 91.2975C66.8945 90.9479 66.42 90.7511 65.925 90.75H62.625C60.1386 90.75 57.754 89.7623 55.9959 88.0041C54.2377 86.246 53.25 83.8614 53.25 81.375V54.8025L9.14625 98.9062C9.86175 100.578 10.9704 102.053 12.3781 103.205C13.7857 104.356 15.4506 105.151 17.2312 105.521C17.9779 105.673 18.738 105.75 19.5 105.75H81.6975Z" fill="black"/>
</svg>
